<svg id="visual" viewBox="0 0 960 300" width="960" height="300" xmlns="http://www.w3.org/2000/svg" xmlns:xlink="http://www.w3.org/1999/xlink" version="1.1"><rect x="0" y="0" width="960" height="300" fill="#1D1856"></rect><path d="M0 84L40 83C80 82 160 80 240 84C320 88 400 98 480 102.2C560 106.3 640 104.7 720 101.7C800 98.7 880 94.3 920 92.2L960 90L960 0L920 0C880 0 800 0 720 0C640 0 560 0 480 0C400 0 320 0 240 0C160 0 80 0 40 0L0 0Z" fill="#c200db"></path><path d="M0 69L40 69.8C80 70.7 160 72.3 240 73.3C320 74.3 400 74.7 480 76.8C560 79 640 83 720 84.8C800 86.7 880 86.3 920 86.2L960 86L960 0L920 0C880 0 800 0 720 0C640 0 560 0 480 0C400 0 320 0 240 0C160 0 80 0 40 0L0 0Z" fill="#d800bd"></path><path d="M0 65L40 67.2C80 69.3 160 73.7 240 72.3C320 71 400 64 480 61.5C560 59 640 61 720 60.8C800 60.7 880 58.3 920 57.2L960 56L960 0L920 0C880 0 800 0 720 0C640 0 560 0 480 0C400 0 320 0 240 0C160 0 80 0 40 0L0 0Z" fill="#e300a3"></path><path d="M0 47L40 46.3C80 45.7 160 44.3 240 45.7C320 47 400 51 480 50.3C560 49.7 640 44.3 720 40.8C800 37.3 880 35.7 920 34.8L960 34L960 0L920 0C880 0 800 0 720 0C640 0 560 0 480 0C400 0 320 0 240 0C160 0 80 0 40 0L0 0Z" fill="#e8008b"></path><path d="M0 20L40 18.7C80 17.3 160 14.7 240 14C320 13.3 400 14.7 480 14.7C560 14.7 640 13.3 720 14C800 14.7 880 17.3 920 18.7L960 20L960 0L920 0C880 0 800 0 720 0C640 0 560 0 480 0C400 0 320 0 240 0C160 0 80 0 40 0L0 0Z" fill="#e80074"></path></svg>